<svg xmlns="http://www.w3.org/2000/svg" version="1.1" xmlns:xlink="http://www.w3.org/1999/xlink" xmlns:svgjs="http://svgjs.dev/svgjs" width="100%" height="100%" viewBox="0 0 1000 600"><rect width="1000" height="600" x="0" y="0" fill="#2b3252"/><g><circle r="166.66666666666666" cx="247.705088297526" cy="269.92732520798" fill="#fad744" transform="matrix(1.5424781188846683,0,0,1.5424781188846683,0,-116.35698818060371)"/><path d="M300.9027677662624 299.9418805567723L300.9027677662624 299.9418805567723Q300.9027677662624 300.98354725424235 298.11691497070285 302.7277333523318L298.11691497070285 302.7277333523318Q283.96962773064377 309.5349040962643 272.99579019683085 323.6579665294055L272.99579019683085 323.6579665294055Q272.29327079621146 324.69963322687556 271.42117774716667 324.69963322687556L271.42117774716667 324.69963322687556Q269.6769916490773 324.69963322687556 269.6769916490773 322.2529277281667L269.6769916490773 322.2529277281667Q269.6769916490773 320.33916798165194 272.3901700238831 316.850795785473Q275.079123591771 313.36242358929405 277.1866817936292 311.78781113962987L277.1866817936292 311.78781113962987Q277.5258290904799 306.72482649378685 277.9618756150022 298.3672681071081Q278.39792213952467 289.9854849135115 278.6643950156216 281.43412807148945Q278.93086789171866 272.9069960363854 278.93086789171866 268.0135850389677L278.93086789171866 268.0135850389677Q278.93086789171866 265.9302516440275 278.93086789171866 264.86436013963953L278.93086789171866 264.86436013963953Q225.53939344464644 265.3973058918335 225.2002461477957 265.3973058918335L225.2002461477957 265.3973058918335Q217.18183505796773 277.7761822268852 212.89404423349774 285.2858723714371Q208.63047821594571 292.7713377090711 204.80295872291603 304.54459387117504Q200.95121442296843 316.3178500332789 200.95121442296843 327.8488581262038L200.95121442296843 327.8488581262038Q200.95121442296843 336.90893591350186 205.14210601976677 341.4389748071509L205.14210601976677 341.4389748071509Q206.71671846943087 343.0135872568151 206.71671846943087 343.88568030585975L206.71671846943087 343.88568030585975Q206.71671846943087 344.9273470033298 203.56749357010264 344.9273470033298L203.56749357010264 344.9273470033298Q198.86788102802825 344.9273470033298 196.6876484054164 338.217075487069Q194.50741578280457 331.50680397080805 194.50741578280457 325.57172627592035L194.50741578280457 325.57172627592035Q194.50741578280457 310.9157180905852 201.21768729906546 296.3566091329217Q207.92795881532632 281.79750017525816 219.2651684529079 265.3973058918335L219.2651684529079 265.3973058918335Q218.56264905228855 265.3973058918335 217.61788158249007 265.3973058918335Q216.64888930577368 265.3973058918335 215.77679625672894 265.3973058918335Q214.9047032076842 265.3973058918335 213.76613728254247 265.3973058918335Q212.65179616431865 265.3973058918335 211.68280388760226 265.4942051195052Q210.71381161088593 265.5668795402589 209.6721449134158 265.5668795402589Q208.63047821594571 265.5668795402589 207.5888115184756 265.5668795402589L207.5888115184756 265.5668795402589Q203.73706721852804 265.5668795402589 201.48416017516246 265.3973058918335Q199.20702832487896 265.2277322434081 199.20702832487896 264.69478649121413L199.20702832487896 264.69478649121413Q199.20702832487896 263.12017404155006 200.61206712611772 262.07850734408Q201.99288112043857 261.0368406466098 204.53648584681903 260.60079412208745Q207.05586576628158 260.1647475975651 209.5994704926621 259.89827472146806Q212.11885041212466 259.6318018453711 215.0742768561096 259.6318018453711L215.0742768561096 259.6318018453711Q217.01226140954233 259.6318018453711 218.9260211560572 259.72870107304277Q220.83978090257202 259.8256003007143 222.14792047613915 259.89827472146806Q223.45606004970622 259.9951739491397 223.45606004970622 259.9951739491397L223.45606004970622 259.9951739491397Q242.47253348026507 234.34110342307375 269.8465652975026 208.00873830330627L269.8465652975026 208.00873830330627Q268.1023791994131 200.5232729656723 268.1023791994131 198.41571476381418L268.1023791994131 198.41571476381418Q268.1023791994131 194.92734256763524 272.29327079621146 194.92734256763524L272.29327079621146 194.92734256763524Q277.5258290904799 194.92734256763524 278.39792213952467 199.9903272134783L278.39792213952467 199.9903272134783Q281.5471470388528 196.84110231415008 282.5888137363229 196.84110231415008L282.5888137363229 196.84110231415008Q284.33299983441236 196.84110231415008 284.33299983441236 200.15990086190368L284.33299983441236 200.15990086190368Q284.33299983441236 200.69284661409768 284.2361006067408 201.46804043547078Q284.1634261859871 202.26745906376178 284.1634261859871 202.60660636061252L284.1634261859871 202.60660636061252Q283.6304804337931 203.1395521128065 282.2254416325543 204.350792458702Q280.8446276382334 205.56203280459746 280.14210823761414 206.4341258536422L280.14210823761414 206.4341258536422Q284.84172077968844 228.2364520797606 284.84172077968844 259.9951739491397L284.84172077968844 259.9951739491397Q285.03551923503176 259.9951739491397 285.4715657595541 259.9951739491397Q285.90761228407655 259.9951739491397 286.07718593250183 259.9951739491397L286.07718593250183 259.9951739491397Q299.4977289650236 259.9951739491397 300.733194117837 262.4418794478486L300.733194117837 262.4418794478486Q300.3698220140684 263.31397249689326 294.19249625000145 263.919592669841Q287.9909456790167 264.52521284278873 284.84172077968844 264.52521284278873L284.84172077968844 264.52521284278873L284.84172077968844 305.1744388510406Q296.88144981788946 298.7064154039589 299.3281553165983 298.7064154039589L299.3281553165983 298.7064154039589Q300.9027677662624 298.7064154039589 300.9027677662624 299.9418805567723ZM229.02776564082538 260.1647475975651L278.93086789171866 260.1647475975651Q278.93086789171866 252.6550574530132 276.6537360414352 237.0542817978796Q274.3766041911516 221.45350614274597 271.59075139559206 214.28296329504482L271.59075139559206 214.28296329504482Q240.36497527840694 242.89246026509576 229.02776564082538 260.1647475975651L229.02776564082538 260.1647475975651Z " fill="#2b3252" transform="matrix(1.5424781188846683,0,0,1.5424781188846683,0,-116.35698818060371)"/><path d="M516.9055770780192 302.19565866541404L516.9055770780192 302.19565866541404Q514.2708104080125 302.19565866541404 514.2708104080125 298.04665827701274L514.2708104080125 298.04665827701274Q514.2708104080125 291.9594387290663 519.4192050505542 278.33133526351446Q524.5373150187281 264.70323179796264 533.1381625392098 245.6238869461902Q541.7692947340593 226.54454209441772 541.9812874546344 225.87827925832406L541.9812874546344 225.87827925832406Q542.6172656163601 223.90977542441104 547.765660258902 213.79469418553484Q552.883770227076 203.64932827229072 553.3077556682263 201.46883171780246L553.3077556682263 201.46883171780246Q553.7620257837448 200.80256888170882 553.0957629476511 200.71171485860512Q552.4295001115574 200.59057616113355 551.2483978112098 200.16659071998305Q550.0370108364939 199.71232060446468 549.6130253953434 198.41007960664527L549.6130253953434 198.41007960664527Q549.6130253953434 197.7438167705516 550.7032736725876 197.10783860882586Q551.7935219498318 196.44157577273222 553.3077556682263 195.89645163411015Q554.852274060989 195.35132749548808 556.790493220534 195.13933477491284Q558.758997054447 194.92734205433757 560.5155081677849 194.92734205433757L560.5155081677849 194.92734205433757Q561.8177491656043 194.92734205433757 563.0291361403199 195.01819607744127Q564.2102384406678 195.13933477491284 565.2096326948083 195.56332021606335Q566.1787422745808 196.01759033158172 566.7238664132028 196.5627144702038Q567.268990551825 197.10783860882586 567.268990551825 197.9860941654948L567.268990551825 197.9860941654948Q567.268990551825 198.6220723272205 566.8450051106745 199.5003278838894L566.8450051106745 199.5003278838894Q562.0297418861794 205.16356199068537 542.8595430113035 244.4124999714745Q523.6590594620593 283.66143795226355 523.6590594620593 292.8376942857351L523.6590594620593 292.8376942857351Q523.6590594620593 293.9279425629793 524.4161763212567 295.0181908402234Q525.173293180454 296.1084391174676 525.173293180454 296.95640999976854L525.173293180454 296.95640999976854Q525.173293180454 297.83466555643747 524.325322298153 298.92491383368156Q523.4470667414842 300.01516211092576 522.2356797667683 300.6814249470194Q521.0545774664206 301.3174031087451 519.6311977711296 301.7716732242635Q518.2078180758385 302.19565866541404 516.9055770780192 302.19565866541404ZM510.7880728557048 324.66688704639046L510.7880728557048 324.66688704639046Q511.87832113294894 324.66688704639046 512.5445839690426 325.30286520811626L512.5445839690426 325.30286520811626L512.5445839690426 325.5451426030594Q512.0903138535243 327.2713690420293 511.3331969943269 330.54211387376165Q510.5760801351296 333.81285870549414 510.0309559965075 336.32648667802926Q509.4858318578854 338.8401146505644 509.4858318578854 339.47609281229006L509.4858318578854 339.47609281229006Q509.4858318578854 341.02061120505266 508.2744448831697 342.322852202872Q507.0933425828219 343.62509320069137 505.3368314694841 344.29135603678503Q503.6106050305142 344.92733419851083 502.06608663775165 344.92733419851083L502.06608663775165 344.92733419851083Q497.7050935287751 344.92733419851083 497.7050935287751 335.78136253940716L497.7050935287751 335.78136253940716Q497.7050935287751 331.8443548715811 502.61121077637375 328.2707632961698Q507.51732802397237 324.66688704639046 510.7880728557048 324.66688704639046Z " fill="#fad744" transform="matrix(1.5424781188846683,0,0,1.5424781188846683,0,-116.35698818060371)"/></g></svg>